<svg version="1.1" id="Layer_1" xmlns="http://www.w3.org/2000/svg" xmlns:xlink="http://www.w3.org/1999/xlink" x="0px" y="0px"
	 width="100%" viewBox="0 0 1024 1024" enable-background="new 0 0 1024 1024" xml:space="preserve">
<path fill="#000000" opacity="1.000000" stroke="none" 
	d="
M406.598206,488.733307 
	C425.508911,450.268616 456.534363,429.103973 498.036804,422.652283 
	C535.164124,416.880676 569.679932,424.899170 602.627686,442.217194 
	C609.348083,445.749573 612.051086,449.434540 611.462585,457.028625 
	C610.705322,466.800537 611.320740,476.675903 611.240417,486.505859 
	C611.226807,488.173767 611.977661,490.536926 609.424500,491.063080 
	C606.978760,491.567078 606.505554,489.299652 605.779846,487.700867 
	C597.749084,470.010773 586.343384,455.071014 569.795105,444.571930 
	C530.198425,419.449799 469.592072,426.945221 443.091309,480.474274 
	C432.109222,502.656982 428.633942,526.230957 430.987366,550.842590 
	C432.972229,571.599731 438.554718,591.080872 450.501373,608.329285 
	C467.489899,632.857117 491.123627,645.546875 520.910950,646.766541 
	C536.685547,647.412476 551.676941,644.432251 565.785706,637.140564 
	C568.634460,635.668213 570.059143,633.966736 570.034851,630.627136 
	C569.870605,607.970093 570.070984,585.308350 569.698792,562.655640 
	C569.513855,551.399658 565.257141,542.203430 553.656311,538.115295 
	C552.296875,537.636230 551.211121,536.834656 551.362854,535.256104 
	C551.555237,533.254761 553.210266,533.119324 554.721680,533.046387 
	C556.550232,532.958069 558.385803,532.990662 560.218018,533.007996 
	C587.698914,533.267639 615.196777,532.111877 642.659241,533.736450 
	C658.191589,534.655334 672.936768,538.107300 685.329163,548.396240 
	C703.671021,563.624695 705.413696,593.544312 689.034485,611.031250 
	C682.184631,618.344360 673.994873,623.484619 663.243225,627.296692 
	C667.623352,628.309875 670.624451,628.905762 673.571594,629.701477 
	C694.638672,635.389465 711.004944,646.338867 716.408325,668.996399 
	C722.181763,693.205688 711.235840,716.767883 688.910339,728.678406 
	C674.983887,736.107971 659.939392,739.860901 644.316040,740.111145 
	C614.831421,740.583435 585.334839,740.310852 555.843201,740.304993 
	C554.291138,740.304688 552.106201,740.976562 551.561157,738.808899 
	C550.932251,736.307739 553.258118,735.990784 554.913635,735.330872 
	C564.404724,731.547363 568.870789,723.755920 569.463562,714.328552 
	C570.791687,693.206177 569.933777,672.025452 569.847473,650.868286 
	C569.845032,650.265991 569.465088,649.665222 569.130432,648.678162 
	C561.150574,650.830933 553.486877,653.620544 545.437073,654.791077 
	C498.969238,661.547668 457.592163,651.851746 424.830811,616.252869 
	C408.073883,598.044556 399.586182,575.872864 396.594299,551.389465 
	C393.933441,529.614868 397.817078,509.005798 406.598206,488.733307 
M599.419189,678.499878 
	C599.416199,693.997498 599.406311,709.495056 599.418091,724.992676 
	C599.419739,727.126099 599.009949,729.511353 602.293091,729.764648 
	C620.094238,731.137878 637.957764,732.400452 655.215149,726.449280 
	C677.220642,718.860779 687.811401,700.454834 685.680420,674.541138 
	C684.118347,655.544556 669.176880,640.309875 648.358948,636.228149 
	C633.324829,633.280457 618.148071,634.553772 603.018494,634.327637 
	C599.243347,634.271240 599.393372,636.918335 599.396301,639.503906 
	C599.410645,652.169189 599.414307,664.834534 599.419189,678.499878 
M607.603516,543.077698 
	C604.134033,543.599548 599.261475,541.106018 599.324951,548.193848 
	C599.539368,572.172058 599.438049,596.153870 599.312622,620.133545 
	C599.294250,623.642395 600.532532,624.840271 603.968689,624.764587 
	C611.961548,624.588562 619.966492,624.876587 627.955322,624.623535 
	C650.206543,623.918579 665.149109,611.939087 668.234680,591.207092 
	C671.692139,567.976074 661.502319,548.728821 636.976196,544.050415 
	C627.586548,542.259277 618.050049,543.253052 607.603516,543.077698 
z"/>
<path fill="#000000" opacity="1.000000" stroke="none" 
	d="
M369.912964,391.207153 
	C378.032349,407.059570 385.976257,422.583649 393.890045,438.048859 
	C396.113525,437.378387 396.429504,435.771667 397.065247,434.496368 
	C416.019745,396.476837 434.972229,358.456207 453.830902,320.389130 
	C455.109283,317.808746 456.631226,316.629150 459.555817,316.658905 
	C470.554291,316.770844 481.554718,316.672791 492.554199,316.717224 
	C494.108185,316.723480 496.220032,316.204285 496.583679,318.556000 
	C496.885925,320.510834 495.040771,320.854431 493.707123,321.448975 
	C484.110229,325.727234 480.388367,333.885223 480.247223,343.600372 
	C479.910767,366.761261 480.072510,389.929504 480.043365,413.094757 
	C480.031494,422.526642 479.986359,422.380188 471.413635,425.732727 
	C464.929840,428.268372 458.616241,431.239288 451.326477,434.407898 
	C451.326477,407.023499 451.326477,380.079346 451.326477,353.135223 
	C450.881897,353.056885 450.437317,352.978546 449.992767,352.900238 
	C428.420349,395.704803 406.847961,438.509399 385.275543,481.313995 
	C384.604614,481.289276 383.933685,481.264587 383.262756,481.239899 
	C361.243225,438.755249 339.223694,396.270569 316.592010,352.604767 
	C316.432861,355.347748 316.266724,356.876862 316.266754,358.405975 
	C316.267395,396.238129 316.289032,434.070312 316.297516,471.902466 
	C316.299042,478.593262 317.073486,485.183441 318.947632,491.610626 
	C320.701630,497.625916 323.918610,502.474670 329.985046,504.993561 
	C331.478119,505.613556 333.381287,506.232300 332.945282,508.418976 
	C332.490601,510.699310 330.428314,510.256042 328.863953,510.260773 
	C316.697876,510.297485 304.531555,510.281525 292.365479,510.231018 
	C290.768219,510.224365 288.713379,510.617798 288.113068,508.534302 
	C287.447754,506.225189 289.584625,505.932892 291.043671,505.277710 
	C301.381714,500.635559 303.555573,491.213776 304.714142,481.411133 
	C306.519043,466.140289 305.595306,450.782471 305.559418,435.466797 
	C305.492645,406.973480 306.095276,378.474945 305.057129,349.985596 
	C304.825562,343.631622 304.701050,337.297974 301.578125,331.520386 
	C299.293243,327.293243 295.997070,324.117523 291.644440,322.000031 
	C290.116211,321.256561 287.567902,321.046722 288.065918,318.562439 
	C288.634949,315.723999 291.286285,316.760376 293.067047,316.744354 
	C304.565796,316.640869 316.068756,316.831604 327.563904,316.603210 
	C331.296783,316.529022 333.180847,317.919647 334.798584,321.183258 
	C346.339996,344.467102 358.068451,367.658203 369.912964,391.207153 
z"/>
<path fill="#000000" opacity="1.000000" stroke="none" 
	d="
M318.999420,804.823486 
	C348.986786,804.843689 378.483978,804.408997 407.958496,805.036865 
	C431.390656,805.536072 454.894135,806.641296 477.484283,814.055420 
	C484.784332,816.451355 491.710205,819.685791 498.072998,824.071228 
	C499.846558,825.293640 501.733276,826.469360 503.736511,827.212158 
	C506.444397,828.216248 509.323944,828.624084 511.575256,826.058411 
	C525.034729,810.720032 543.307373,805.241699 562.343079,801.741638 
	C593.471375,796.018188 624.875366,796.459412 656.388428,797.451599 
	C688.193115,798.453003 719.841858,801.207886 751.537659,803.551270 
	C756.180176,803.894470 760.862549,803.720520 765.526672,803.745056 
	C771.676453,803.777466 775.287659,807.584717 777.948242,812.428711 
	C779.614685,815.462585 778.275085,817.616882 774.887146,818.185242 
	C773.261292,818.458008 771.564880,818.346069 769.900391,818.347351 
	C732.915588,818.376038 695.924561,817.989807 658.948303,818.562805 
	C634.814758,818.936829 610.681580,817.772705 586.550110,819.080261 
	C570.964783,819.924683 556.990601,824.282227 544.571167,834.131714 
	C522.217285,851.859924 494.295349,851.930908 471.911804,834.155762 
	C460.423981,825.033081 447.634308,820.613586 433.251434,820.137268 
	C380.957764,818.405762 328.646698,819.776550 276.345428,819.328186 
	C266.183624,819.241089 256.020538,819.303528 245.858063,819.286682 
	C243.507156,819.282776 240.959869,819.401245 239.755295,816.868530 
	C238.430038,814.082153 240.392624,812.128235 242.038467,810.259949 
	C244.678513,807.263062 247.801193,805.507996 252.055420,805.623108 
	C274.210938,806.222473 296.348389,804.902771 318.999420,804.823486 
z"/>
<path fill="#000000" opacity="1.000000" stroke="none" 
	d="
M275.106018,306.088959 
	C236.889191,348.681946 211.571320,397.472656 199.891861,453.227295 
	C195.819092,472.669586 193.422195,492.393463 193.535400,512.183105 
	C193.810272,560.227661 203.578522,606.302612 224.110046,649.975037 
	C238.551086,680.692383 257.207336,708.499695 280.134979,733.482910 
	C280.810547,734.219055 281.474426,734.967896 282.106812,735.741028 
	C282.666199,736.424988 282.981506,737.243225 282.366638,738.000732 
	C281.661987,738.868896 280.672211,739.126282 279.717194,738.428406 
	C278.781921,737.744995 277.914886,736.953308 277.088928,736.137207 
	C230.055023,689.666870 199.616196,634.102905 185.658905,569.473145 
	C180.359268,544.932983 177.964142,520.095276 178.962204,495.059387 
	C181.890732,421.597290 208.086517,357.599579 258.300079,303.736359 
	C297.278717,261.924591 344.476654,233.367233 399.367218,217.485443 
	C400.166718,217.254120 400.950043,216.936600 401.764496,216.793839 
	C403.417572,216.504089 405.330170,216.080032 405.882904,218.314484 
	C406.391754,220.371521 404.496704,220.695404 403.140869,221.161209 
	C363.675018,234.720367 328.759064,256.004211 297.590851,283.561005 
	C289.730652,290.510468 282.317230,297.963257 275.106018,306.088959 
z"/>
<path fill="#000000" opacity="1.000000" stroke="none" 
	d="
M826.110168,595.918213 
	C813.426331,642.553650 791.495972,683.847290 760.215210,720.130737 
	C754.675049,726.556946 748.601624,732.530762 742.631470,738.572083 
	C741.528137,739.688599 740.018677,742.067078 738.124451,740.150391 
	C736.296997,738.301270 738.513977,736.836914 739.656616,735.583069 
	C758.962158,714.397461 775.120178,691.050659 788.100891,665.489929 
	C804.848511,632.511414 815.673523,597.729065 819.788025,560.949219 
	C827.367676,493.194916 815.338501,429.342224 781.217102,370.012085 
	C779.199463,366.503815 779.658569,364.688477 782.806335,362.262756 
	C792.842712,354.528320 790.964905,355.284882 796.342773,364.762512 
	C817.069702,401.290680 829.700745,440.433655 834.435364,482.186462 
	C838.780701,520.506714 836.009766,558.256836 826.110168,595.918213 
z"/>
<path fill="#000000" opacity="1.000000" stroke="none" 
	d="
M515.010742,817.004272 
	C513.874512,817.935730 513.097595,818.895386 511.110901,818.327942 
	C512.051636,813.739746 514.890808,810.318054 517.664368,806.972839 
	C528.190918,794.276428 542.199097,786.659363 557.167419,780.673584 
	C577.537720,772.527527 598.983765,768.777466 620.577148,765.626160 
	C649.054810,761.470154 677.906982,760.977478 706.359253,756.658020 
	C710.790222,755.985291 715.176575,754.995972 719.561523,754.051086 
	C721.825867,753.563171 723.795715,753.519897 725.329407,755.672974 
	C734.523682,768.580872 744.470642,780.852356 756.013428,791.768127 
	C756.329163,792.066650 756.381348,792.643921 756.692444,793.438721 
	C752.160156,795.335754 747.763184,793.612793 743.610962,792.878784 
	C720.367737,788.769653 697.214111,783.977905 673.714355,781.658691 
	C633.840759,777.723450 594.280823,778.319824 555.901550,792.080444 
	C540.638611,797.552917 526.871826,805.344116 515.010742,817.004272 
z"/>
<path fill="#000000" opacity="1.000000" stroke="none" 
	d="
M475.827972,800.128540 
	C484.706696,806.092041 493.236572,811.905640 499.400452,820.728699 
	C497.451263,821.783813 496.721161,820.890930 495.991119,820.338257 
	C473.935608,803.640076 448.562592,795.099976 421.722534,790.283081 
	C391.167999,784.799500 360.464661,785.269653 329.668579,787.970337 
	C308.273682,789.846558 287.114044,793.478271 265.787170,795.813049 
	C263.705994,796.040894 261.541504,796.658264 259.514618,795.332886 
	C259.312836,793.246765 260.967133,792.390747 262.089966,791.316162 
	C271.372894,782.431641 280.221436,773.146790 287.669800,762.651123 
	C289.751312,759.717896 291.921478,759.070007 295.255341,759.982483 
	C314.933838,765.367981 335.190643,766.885803 355.390106,768.761597 
	C390.409271,772.013733 425.269928,775.972473 457.881683,790.585449 
	C463.980255,793.318176 469.825165,796.471313 475.827972,800.128540 
z"/>
<path fill="#000000" opacity="1.000000" stroke="none" 
	d="
M471.623138,210.574799 
	C480.291016,209.705475 488.500824,208.877350 497.923035,207.926926 
	C489.896606,197.479263 482.575348,187.949432 475.254059,178.419601 
	C475.642609,178.018372 476.031158,177.617142 476.419708,177.215912 
	C485.563751,184.793732 494.707794,192.371567 504.917999,200.832916 
	C506.929077,167.734360 508.866974,135.840439 510.804871,103.946510 
	C511.423676,103.930176 512.042480,103.913841 512.661316,103.897507 
	C514.567322,135.731735 516.473328,167.565964 518.448059,200.547028 
	C528.278809,192.451782 537.466736,184.885849 546.654663,177.319931 
	C547.007385,177.682541 547.360107,178.045166 547.712830,178.407776 
	C541.359436,188.573975 533.127930,197.410049 525.679871,207.912384 
	C545.763672,210.169876 565.297546,210.967819 584.577087,213.897812 
	C584.608093,214.406860 584.639038,214.915909 584.670044,215.424957 
	C565.242188,217.328476 545.814392,219.231979 525.168457,221.254837 
	C533.376770,231.684952 540.865295,241.200439 548.353821,250.715912 
	C547.917969,251.131378 547.482056,251.546844 547.046204,251.962311 
	C537.771667,244.371735 528.497131,236.781158 518.087158,228.261261 
	C516.189087,250.581696 514.378418,271.874146 512.567749,293.166565 
	C511.925812,293.176147 511.283875,293.185730 510.641968,293.195312 
	C508.821045,271.918335 507.000153,250.641373 505.090790,228.330933 
	C495.121582,236.539444 485.766388,244.242386 476.411224,251.945312 
	C475.987762,251.564270 475.564301,251.183243 475.140839,250.802200 
	C482.428162,241.332184 489.715454,231.862152 497.706207,221.477982 
	C477.720947,218.502274 458.314453,218.309708 439.247467,214.509476 
	C449.762299,212.039871 460.479767,211.449936 471.623138,210.574799 
z"/>
<path fill="#000000" opacity="1.000000" stroke="none" 
	d="
M486.934998,793.042603 
	C495.296509,800.216187 502.155334,808.016235 505.790436,818.362061 
	C503.680328,819.150635 502.997314,818.306580 502.385468,817.572083 
	C483.384064,794.758240 458.325806,781.527344 430.764252,772.241150 
	C407.664642,764.458252 383.761627,760.298279 359.809875,756.272217 
	C343.749939,753.572632 327.654633,750.884216 312.309845,745.097534 
	C304.008301,741.966919 300.188995,738.529907 298.056763,732.411499 
	C298.743988,731.224915 299.813629,731.613220 300.688141,731.947693 
	C324.619324,741.098145 349.856201,744.785034 374.805817,749.651733 
	C405.222626,755.584961 435.539093,761.781006 463.142487,776.862183 
	C471.504700,781.430969 479.366669,786.695435 486.934998,793.042603 
z"/>
<path fill="#000000" opacity="1.000000" stroke="none" 
	d="
M686.892578,261.142883 
	C666.112976,246.483643 644.349731,234.356842 621.058350,225.017471 
	C620.131531,224.645844 619.181519,224.311813 618.302124,223.847061 
	C616.895264,223.103485 614.709778,222.650208 615.437439,220.461258 
	C616.237976,218.053146 618.275452,218.779953 620.076660,219.341614 
	C632.484924,223.211090 644.648193,227.748413 656.476196,233.125931 
	C685.942627,246.522568 712.948669,263.708740 736.677429,285.834564 
	C738.317078,287.363525 742.126343,289.030640 738.435120,292.027069 
	C731.184509,297.912933 731.541382,299.391815 727.257202,295.107056 
	C714.865906,282.714294 701.441956,271.532379 686.892578,261.142883 
z"/>
<path fill="#000000" opacity="1.000000" stroke="none" 
	d="
M748.050781,313.950378 
	C756.121399,308.304108 764.303101,308.307373 770.824890,313.713806 
	C776.668335,318.557892 778.778748,327.116638 775.738342,334.049896 
	C772.687927,341.006104 767.224731,344.596344 759.701233,344.619446 
	C752.193665,344.642487 746.685425,341.131348 743.558350,334.205139 
	C740.374390,327.153046 741.792297,320.570862 748.050781,313.950378 
z"/>
<path fill="#000000" opacity="1.000000" stroke="none" 
	d="
M268.736084,635.004028 
	C268.007050,619.673828 260.564423,611.309631 245.341705,610.436646 
	C244.376984,610.381348 243.318253,610.330139 242.498688,609.144043 
	C244.067963,606.733765 246.896332,607.389709 249.051819,606.935547 
	C262.713745,604.056824 265.172424,601.690552 267.775818,588.087097 
	C268.483490,584.389221 269.280823,580.708496 270.227966,576.088379 
	C273.043579,580.196472 273.023621,584.131958 273.408661,587.685120 
	C274.698212,599.585510 281.018219,605.938416 292.882324,607.018372 
	C294.661407,607.180359 296.392883,607.876282 298.140991,608.345398 
	C298.265076,608.378662 298.344299,608.579041 298.670166,608.978455 
	C297.101776,610.937988 294.646729,610.949219 292.589630,611.197083 
	C281.365631,612.549438 274.802673,618.256470 273.624298,629.902527 
	C273.260712,633.496094 273.016205,637.376038 270.819031,640.891724 
	C269.283569,639.033264 269.314301,637.128113 268.736084,635.004028 
z"/>
<path fill="#000000" opacity="1.000000" stroke="none" 
	d="
M516.614197,383.357483 
	C514.069458,386.761780 511.200745,387.240570 508.393982,384.674408 
	C505.969238,382.457458 506.138916,379.648987 508.250183,377.186096 
	C509.804810,375.372498 511.987946,374.939941 514.087708,375.960419 
	C517.036560,377.393555 517.809753,379.917023 516.614197,383.357483 
z"/>
<path fill="#000000" opacity="1.000000" stroke="none" 
	d="
M509.192749,310.201233 
	C512.943909,308.553040 515.450684,309.557709 516.453003,313.145386 
	C517.192139,315.790894 515.818848,317.687256 513.239624,318.480011 
	C510.312500,319.379761 508.425507,317.999329 507.401703,315.321198 
	C506.651184,313.357971 507.474487,311.772186 509.192749,310.201233 
z"/>
<path fill="#000000" opacity="1.000000" stroke="none" 
	d="
M507.042908,346.838379 
	C507.369019,343.301575 509.268951,341.670959 512.307129,341.945953 
	C514.613953,342.154755 516.148376,343.762939 516.384888,346.197571 
	C516.629089,348.710510 515.217712,350.355255 512.987488,350.966797 
	C509.848877,351.827423 508.046692,350.077515 507.042908,346.838379 
z"/>
</svg>